<svg version="1.1" id="Layer_1" xmlns="http://www.w3.org/2000/svg" xmlns:xlink="http://www.w3.org/1999/xlink" x="0px" y="0px"
	 width="100%" viewBox="0 0 617 403" enable-background="new 0 0 617 403" xml:space="preserve">
<path fill="#DEDEDE" opacity="1.000000" stroke="none" 
	d="
M618.000000,26.000000 
	C618.000000,27.388889 618.000000,28.777779 617.670044,30.508829 
	C613.810608,27.317392 610.521545,23.495316 606.700134,20.312260 
	C599.488403,14.305241 591.443054,9.993301 581.667480,9.994871 
	C511.530151,10.006135 441.392822,10.005395 371.255493,9.977363 
	C369.480896,9.976654 367.710419,9.547585 365.930756,9.447139 
	C364.056122,9.341331 362.172760,9.390385 360.293213,9.371778 
	C360.786133,11.326873 361.279083,13.281966 361.585236,14.496188 
	C365.300415,13.850096 367.740204,13.057412 370.180786,13.055033 
	C438.652069,12.988263 507.123657,12.925771 575.594421,13.132284 
	C581.649109,13.150546 588.311096,13.720861 593.636963,16.252340 
	C610.669861,24.348377 615.567932,29.594427 612.081177,49.237202 
	C611.624268,51.810936 611.588074,54.616707 612.093750,57.169044 
	C612.967224,61.577549 614.323486,65.901970 615.694763,70.192139 
	C616.037415,71.264175 617.209290,72.071175 618.000000,73.000000 
	C618.000000,159.023331 618.000000,245.046646 617.683716,331.215637 
	C616.431702,333.874512 615.350403,336.344513 614.588928,338.909485 
	C612.650146,345.439667 610.808228,351.656616 612.662476,358.965393 
	C614.157898,364.860291 614.433777,372.141632 609.929443,377.326508 
	C601.941589,386.521271 591.541382,391.899078 579.226807,391.925720 
	C509.449921,392.076691 439.672485,392.013062 369.895325,391.938843 
	C367.454712,391.936249 365.015045,391.051880 361.608215,390.390930 
	C361.230286,391.717834 360.699188,393.582581 360.168060,395.447327 
	C362.037689,395.542267 363.912415,395.767395 365.775482,395.694397 
	C367.533661,395.625580 369.279480,395.030243 371.030945,395.029358 
	C440.641602,394.993347 510.252502,394.915619 579.862671,395.105225 
	C588.448547,395.128601 595.910706,392.493408 602.533447,387.740387 
	C608.105835,383.741180 612.875183,378.622894 618.000000,374.000000 
	C618.000000,375.388885 618.000000,376.777802 617.742859,378.273132 
	C606.874878,389.037781 595.146362,397.949799 580.425903,402.246429 
	C580.137878,402.330505 580.135620,403.393677 580.000000,404.000000 
	C399.976685,404.000000 219.953354,404.000000 39.783661,403.690674 
	C39.172852,402.939514 38.774956,402.229797 38.234131,402.095459 
	C27.543091,399.439728 18.506277,393.830566 10.207849,386.774506 
	C7.312080,384.312286 4.079022,382.246704 1.000000,380.000000 
	C1.000000,378.285553 1.000000,376.571075 1.337813,374.511810 
	C4.641889,377.464905 7.264310,381.177917 10.643626,383.977203 
	C18.483934,390.471863 27.018974,395.121460 37.858192,395.092957 
	C107.799301,394.909149 177.741150,394.985016 247.682648,395.063873 
	C249.825317,395.066315 251.945053,396.244232 254.117493,396.470306 
	C255.346344,396.598236 256.931580,396.223053 257.837830,395.459320 
	C258.401917,394.983917 258.460327,392.897522 257.920929,392.356659 
	C257.076080,391.509369 255.523041,390.964813 254.288696,390.997559 
	C252.054535,391.056824 249.834457,391.951080 247.608047,391.952942 
	C180.164413,392.009033 112.720695,392.018768 45.277069,391.955566 
	C40.536652,391.951111 35.478382,392.261505 31.133221,390.774048 
	C25.002098,388.675262 19.058689,385.538818 13.670021,381.904480 
	C8.738675,378.578552 4.654902,374.055664 5.915052,367.040009 
	C6.261895,365.109009 5.845930,363.053772 5.990282,361.070801 
	C6.239130,357.652405 7.335300,354.144806 6.847677,350.856750 
	C5.976531,344.982666 4.214142,339.238251 2.721616,333.466125 
	C2.647993,333.181396 1.596278,333.149567 1.000002,333.000000 
	C1.000000,246.310013 1.000000,159.620010 1.324655,72.786194 
	C5.592752,63.140671 7.466086,53.503666 5.816900,43.049595 
	C5.109417,38.564911 5.328303,32.521004 7.817925,29.208527 
	C15.456156,19.045744 26.154436,13.067042 39.237476,13.048253 
	C108.713409,12.948468 178.189590,12.991108 247.665619,13.047863 
	C249.892197,13.049682 252.112823,13.963545 254.346664,14.017148 
	C255.565002,14.046383 257.105743,13.446437 257.927582,12.583853 
	C258.454895,12.030392 258.360718,9.956575 257.792328,9.498658 
	C256.874298,8.759047 255.299515,8.441335 254.067902,8.570860 
	C251.889786,8.799927 249.761597,9.935742 247.611679,9.938078 
	C177.302643,10.014471 106.993301,9.934590 36.684807,10.145228 
	C31.842058,10.159737 26.760603,11.642045 22.218325,13.492669 
	C13.433916,17.071630 7.067204,23.935501 1.000000,31.000000 
	C1.000000,29.285547 1.000000,27.571093 1.258207,25.739145 
	C12.413227,15.646627 23.752636,6.396152 38.569691,2.747451 
	C38.840164,2.680847 38.862099,1.604961 39.000000,1.000000 
	C219.023315,1.000000 399.046631,1.000000 579.216675,1.306810 
	C579.684998,1.989304 579.938110,2.583787 580.338074,2.708991 
	C594.025940,6.993204 605.643433,14.522326 615.485474,24.903799 
	C616.064636,25.514730 617.150146,25.645685 618.000000,26.000000 
z"/>
<path fill="#DEDEDE" opacity="1.000000" stroke="none" 
	d="
M618.000000,15.000000 
	C618.000000,17.370558 618.000000,19.741116 617.669556,22.481144 
	C608.292236,13.002450 596.908752,6.612541 585.000000,1.000000 
	C590.688049,1.000000 596.376038,1.000000 602.209351,1.261344 
	C605.931519,7.916949 611.585693,11.899674 618.000000,15.000000 
z"/>
<path fill="#DEDEDE" opacity="1.000000" stroke="none" 
	d="
M603.000000,404.000000 
	C597.311951,404.000000 591.623962,404.000000 585.582397,403.642456 
	C586.743103,402.747223 588.306274,402.317230 589.763611,401.654633 
	C600.373352,396.830750 609.522705,389.895020 618.000000,382.000000 
	C618.000000,384.370575 618.000000,386.741119 617.635986,389.558624 
	C614.386536,391.970612 611.176697,393.601715 608.710144,395.997894 
	C606.397766,398.244232 604.871887,401.300232 603.000000,404.000000 
z"/>
<path fill="#DEDEDE" opacity="1.000000" stroke="none" 
	d="
M16.000000,1.000000 
	C21.354929,1.000000 26.709860,1.000000 32.424660,1.351928 
	C28.764975,3.705810 24.433046,5.261038 20.793264,7.806120 
	C13.983610,12.567703 7.575287,17.903240 1.000000,23.000000 
	C1.000000,20.299986 1.000000,17.599972 1.266281,14.774243 
	C6.355041,10.099018 11.177520,5.549509 16.000000,1.000000 
z"/>
<path fill="#DEDEDE" opacity="1.000000" stroke="none" 
	d="
M0.999997,391.000000 
	C1.000000,388.299988 1.000000,385.599976 1.341187,382.544830 
	C6.301292,386.169922 10.629679,390.570526 15.617196,394.017395 
	C21.094889,397.803009 27.179707,400.710114 33.000000,404.000000 
	C27.645071,404.000000 22.290140,404.000000 16.465269,403.644958 
	C13.018374,400.049011 10.231069,396.598450 6.981402,393.659058 
	C5.443842,392.268280 3.021482,391.855743 0.999997,391.000000 
z"/>
<path fill="#DEDEDE" opacity="1.000000" stroke="none" 
	d="
M618.000000,368.531342 
	C617.334900,367.946136 616.295593,366.965698 616.071838,365.825256 
	C615.261780,361.696228 614.031311,357.473389 614.268433,353.361420 
	C614.541870,348.618805 616.201477,343.956116 617.629578,339.129333 
	C618.000000,348.687561 618.000000,358.375122 618.000000,368.531342 
z"/>
<path fill="#DEDEDE" opacity="1.000000" stroke="none" 
	d="
M618.000000,65.531342 
	C614.828247,59.601711 613.199219,53.094093 615.472412,45.915562 
	C616.240723,43.489273 615.794434,40.692783 616.068054,38.082752 
	C616.120056,37.586441 616.947021,37.171352 617.708252,36.359390 
	C618.000000,45.687561 618.000000,55.375122 618.000000,65.531342 
z"/>
<path fill="#DDDDDD" opacity="1.000000" stroke="none" 
	d="
M1.000000,340.468658 
	C2.947278,345.348999 4.876448,350.487823 3.204849,356.566071 
	C2.103773,360.569794 2.818654,365.072296 2.704210,369.351013 
	C2.700594,369.486237 2.464209,369.744446 2.427622,369.729034 
	C2.139865,369.607574 1.874411,369.433350 1.301043,369.637695 
	C1.000000,360.312439 1.000000,350.624878 1.000000,340.468658 
z"/>
<path fill="#DDDDDD" opacity="1.000000" stroke="none" 
	d="
M1.000000,35.468658 
	C1.666367,36.042900 2.929465,37.099739 2.905472,38.126507 
	C2.698216,46.995697 5.217906,55.998199 1.376184,64.859222 
	C1.000000,55.312439 1.000000,45.624878 1.000000,35.468658 
z"/>
</svg>