<svg version="1.1" id="Layer_1" xmlns="http://www.w3.org/2000/svg" xmlns:xlink="http://www.w3.org/1999/xlink" x="0px" y="0px"
	 width="100%" viewBox="0 0 657 207" enable-background="new 0 0 657 207" xml:space="preserve">
<path fill="#DEDEDE" opacity="1.000000" stroke="none" 
	d="
M83.000000,1.000000 
	C247.024902,1.000000 411.049805,1.000000 575.223145,1.329592 
	C581.238708,3.104783 587.039185,5.142992 592.993469,5.812950 
	C597.971008,6.373004 603.136108,5.418334 608.204407,4.976254 
	C613.322693,4.529805 616.914429,7.115201 620.121582,10.596723 
	C626.609863,17.640108 629.202393,26.314325 628.857178,35.503178 
	C628.344238,49.154812 624.623718,61.959728 618.489502,74.422340 
	C608.074524,95.582321 609.412476,117.128197 620.056580,137.998276 
	C627.974609,153.523499 631.159424,169.743896 626.793701,186.690613 
	C624.912903,193.991501 620.002625,200.562805 612.391968,202.722397 
	C607.316650,204.162552 601.500977,203.083618 596.020630,202.957520 
	C594.106079,202.913452 592.084290,201.765915 590.317810,202.128204 
	C584.982056,203.222504 579.740234,204.784729 574.492432,206.272339 
	C574.189392,206.358246 574.157837,207.402008 574.000000,208.000000 
	C411.308411,208.000000 248.616852,208.000000 85.776581,207.670563 
	C84.028847,206.700043 82.468811,205.927048 80.824005,205.440796 
	C73.776466,203.357361 67.030823,202.317093 59.269878,203.628296 
	C45.158085,206.012482 36.971943,199.912231 31.947996,185.345856 
	C29.234148,177.477371 29.549362,169.437592 31.186209,161.676926 
	C32.819118,153.934921 35.138412,146.083099 38.684963,139.050049 
	C47.191971,122.180000 49.870419,104.699768 44.930267,86.625977 
	C42.125477,76.364517 36.458618,66.897179 33.506931,56.660950 
	C30.054705,44.688904 27.467478,32.227917 33.015873,19.997160 
	C35.775822,13.913189 39.089584,7.540627 45.972908,5.821507 
	C51.433411,4.457740 57.732769,4.008718 63.110565,5.351941 
	C70.491539,7.195500 76.324593,3.261598 82.900734,2.411572 
	C82.993103,2.399633 82.969482,1.490430 83.000000,1.000000 
z"/>
<path fill="#DFDFDF" opacity="1.000000" stroke="none" 
	d="
M631.000000,208.000000 
	C625.311951,208.000000 619.623962,208.000000 613.544312,207.663696 
	C613.977966,206.510880 614.702332,205.547180 615.644470,204.901093 
	C623.260681,199.678177 628.846313,192.564896 631.269043,183.907059 
	C633.516174,175.876541 634.327759,167.339127 634.883484,158.965973 
	C635.648682,147.436646 635.621033,135.852493 635.783508,124.289719 
	C635.796021,123.396950 634.792786,122.239723 633.947510,121.679153 
	C633.442566,121.344299 631.861023,121.670799 631.584106,122.162331 
	C631.068787,123.077057 630.962341,124.339424 631.018738,125.440025 
	C631.420166,133.275421 631.905823,141.106491 632.364685,148.938934 
	C603.859985,117.974556 613.206726,76.544853 632.175598,59.113914 
	C631.204773,67.937759 633.599792,76.481010 630.218628,85.622963 
	C631.786926,85.944801 633.327026,86.260841 634.867126,86.576889 
	C634.949280,85.144768 635.075317,83.713432 635.100647,82.280304 
	C635.124146,80.953300 635.008850,79.624405 635.007874,78.296310 
	C634.999451,66.805290 635.124023,55.312332 634.939758,43.824272 
	C634.871948,39.596870 634.389771,35.320221 633.566467,31.171242 
	C631.001709,18.246315 622.708374,9.115484 613.000000,1.000000 
	C615.041687,1.000000 617.083313,1.000000 619.253662,1.266314 
	C621.337158,3.584626 623.291931,5.636624 625.246643,7.688623 
	C625.611572,7.385602 625.976440,7.082581 626.341370,6.779560 
	C624.894226,4.853040 623.447144,2.926520 622.000000,1.000000 
	C624.700012,1.000000 627.400024,1.000000 630.241089,1.278344 
	C633.191345,5.137337 635.889160,8.813313 638.844666,12.268799 
	C641.258911,15.091464 645.174194,16.886833 644.152588,21.761700 
	C643.979004,22.590443 645.350769,24.266077 646.378845,24.729870 
	C650.133789,26.423798 650.239868,29.414579 650.059814,32.853592 
	C649.851196,36.838844 650.134399,40.847942 649.987305,44.838692 
	C649.598877,55.375511 651.290833,65.561226 655.072327,75.375313 
	C655.603821,76.754745 657.002686,77.800034 658.000000,79.000000 
	C658.000000,80.388893 658.000000,81.777779 657.644287,83.590332 
	C656.077026,83.441216 654.865540,82.868423 653.407349,82.003784 
	C652.256531,78.339996 651.352417,74.968063 650.448242,71.596123 
	C650.612488,75.560951 648.351196,80.052902 652.981079,83.441254 
	C654.031372,86.937027 654.977966,90.070999 656.115234,93.134186 
	C656.285461,93.592819 657.349487,93.719658 658.000000,94.000000 
	C658.000000,95.388893 658.000000,96.777779 657.543640,98.666603 
	C656.784973,99.231850 656.482727,99.297157 656.100098,98.999695 
	C655.678772,97.246902 655.512390,95.783623 654.965759,94.479820 
	C652.823364,89.370445 652.636719,83.181480 647.036438,79.519173 
	C646.664185,77.694443 646.334839,76.272057 646.419922,74.718491 
	C646.885925,59.998085 646.979980,45.408676 646.917725,30.819921 
	C646.912048,29.486256 645.905334,28.156858 645.363464,26.825481 
	C644.933960,26.968288 644.504456,27.111095 644.074951,27.253902 
	C644.074951,30.028528 644.074951,32.803154 644.074951,35.908966 
	C641.464722,30.777328 639.050720,26.031345 636.435669,21.058926 
	C635.846375,20.199947 635.458130,19.567408 635.027710,18.545979 
	C634.368774,17.750761 633.751892,17.344431 633.135010,16.938095 
	C633.543579,17.862558 633.952209,18.787031 634.562622,19.937714 
	C635.153503,20.797016 635.542480,21.430107 635.971863,22.435427 
	C640.888367,32.556744 645.149170,42.405415 644.081787,53.775345 
	C643.617126,58.724400 643.802002,63.765442 644.099426,68.740349 
	C644.225281,70.845093 645.401001,72.887077 645.891357,75.318100 
	C642.199829,77.734840 644.703491,79.112228 646.475525,80.872696 
	C654.692566,93.230415 656.415710,106.055725 650.940247,119.568085 
	C649.606323,122.859787 647.533813,125.852203 645.800903,128.982224 
	C646.103394,129.223618 646.405823,129.465027 646.708313,129.706436 
	C647.859375,128.476746 649.010498,127.247063 650.352783,126.161758 
	C650.777344,126.534531 650.944397,126.804016 650.865479,127.481689 
	C650.422913,130.647766 650.160034,133.446777 649.897095,136.245773 
	C651.216797,134.130539 651.245972,131.791931 652.132996,129.843933 
	C653.297974,127.285706 653.826721,123.687004 658.000000,124.000000 
	C658.000000,125.714355 658.000000,127.428711 657.697937,129.264130 
	C656.675415,130.064926 655.493408,130.637085 655.306030,131.441040 
	C653.446350,139.421829 651.163757,147.370117 650.187012,155.470627 
	C649.335876,162.528809 650.926514,169.927216 649.739624,176.885529 
	C648.669312,183.160355 644.172852,188.462509 640.839844,193.975052 
	C637.891907,198.850815 634.304871,203.340088 631.000000,208.000000 
M644.992859,132.549316 
	C645.356445,131.640244 645.720032,130.731171 646.083557,129.822113 
	C645.621704,129.751404 645.159851,129.680695 644.697998,129.609985 
	C644.697998,130.829193 644.697998,132.048401 645.422668,133.818619 
	C644.949707,136.158920 644.018616,138.510925 644.077942,140.837646 
	C644.470398,156.225616 644.710083,171.544708 635.730835,185.848831 
	C635.080688,187.254501 634.430542,188.660172 633.780396,190.065842 
	C634.247070,190.263397 634.713806,190.460938 635.180481,190.658493 
	C635.808044,189.126816 636.435608,187.595154 637.725403,185.763580 
	C639.639221,181.622498 641.553040,177.481415 644.012695,172.159164 
	C644.012695,176.163528 644.012695,178.871567 644.012695,181.579620 
	C645.717041,180.420166 646.889343,178.934341 646.904846,177.436615 
	C647.046753,163.665390 647.034302,149.891617 646.885437,136.120544 
	C646.875366,135.192078 645.395020,134.279510 644.992859,132.549316 
M628.971191,198.384491 
	C627.874695,198.990875 626.778198,199.597260 625.681702,200.203659 
	C626.234680,200.890625 626.787720,201.577591 627.340698,202.264572 
	C627.877075,201.259796 628.413452,200.255035 628.971191,198.384491 
M629.329651,9.958448 
	C628.910828,10.344499 628.491943,10.730548 628.073120,11.116595 
	C628.520874,11.514578 628.968689,11.912560 629.416443,12.310533 
	C629.586975,11.750773 629.757568,11.191015 629.329651,9.958448 
M631.319885,196.053604 
	C631.463867,195.305573 631.607849,194.557541 631.751892,193.809525 
	C631.371399,193.771500 630.990906,193.733490 630.610474,193.695480 
	C630.560852,194.585495 630.511292,195.475494 631.319885,196.053604 
M633.925354,192.435822 
	C633.761841,191.868317 633.598389,191.300812 633.434875,190.733292 
	C632.979858,191.119141 632.524780,191.504990 632.069763,191.890839 
	C632.476135,192.285812 632.882568,192.680771 633.925354,192.435822 
M631.670532,16.041714 
	C632.089844,15.656135 632.509155,15.270556 632.928467,14.884972 
	C632.479736,14.485967 632.031067,14.086962 631.582336,13.687965 
	C631.411865,14.248031 631.241394,14.808097 631.670532,16.041714 
z"/>
<path fill="#DFDFDF" opacity="1.000000" stroke="none" 
	d="
M46.000000,208.000000 
	C40.311958,208.000000 34.623920,208.000000 28.783005,207.723068 
	C24.854774,202.898987 20.158133,198.818100 17.556324,193.677032 
	C14.809485,188.249390 11.415462,183.165390 9.012772,177.571579 
	C8.831547,177.149658 8.988677,176.582352 8.988677,176.082626 
	C8.988681,169.752808 9.615767,163.344452 8.835433,157.112350 
	C7.778879,148.674240 5.713500,140.355545 3.862295,132.034256 
	C3.673564,131.185898 1.989931,130.670120 1.000000,130.000000 
	C1.000000,128.285645 1.000000,126.571281 1.284775,124.750610 
	C2.725897,125.207298 4.498246,125.478722 4.927598,126.385818 
	C6.454240,129.611191 7.523407,133.053116 8.765817,136.413025 
	C8.961805,136.400497 9.157793,136.387970 9.353781,136.375427 
	C8.887732,133.288757 8.421682,130.202072 8.056366,126.896881 
	C8.330255,126.400284 8.557437,126.177231 8.995341,126.346268 
	C10.262946,127.618675 11.373856,128.554016 12.484765,129.489365 
	C12.732065,128.028748 12.404990,127.165489 11.891463,126.432945 
	C7.248614,119.810074 5.094493,112.472557 4.954278,104.382301 
	C4.800364,95.501526 7.870024,87.796822 13.008537,80.386856 
	C15.447955,78.265549 16.272724,76.455994 13.140768,74.521729 
	C13.865521,72.396347 14.839648,70.648125 14.927889,68.856270 
	C15.404838,59.170994 14.893944,49.363926 16.272051,39.822491 
	C17.156017,33.702274 20.712433,27.968050 23.355394,21.957584 
	C23.964399,21.147095 24.288897,20.439821 24.901495,19.481552 
	C25.486088,18.450483 25.782581,17.670412 26.079073,16.890339 
	C25.757801,16.749058 25.436529,16.607777 25.115255,16.466496 
	C24.719370,17.290134 24.323484,18.113773 23.643471,19.040684 
	C23.035744,19.850929 22.712147,20.557901 22.114296,21.500486 
	C19.653509,26.313168 17.466972,30.890240 14.784341,36.505783 
	C14.784341,32.639412 14.784341,29.886961 14.784341,27.134512 
	C14.287222,27.018078 13.790104,26.901646 13.292985,26.785212 
	C12.865679,28.390051 12.079663,29.992201 12.067609,31.600153 
	C11.967870,44.903828 11.987126,58.208702 12.056630,71.512764 
	C12.062318,72.601570 12.705867,73.687050 13.382076,75.072426 
	C13.114392,76.887619 12.517662,78.404449 11.553009,79.960121 
	C5.709858,85.150803 5.081960,92.436432 2.516364,99.011383 
	C1.808686,99.013428 1.404343,99.006714 1.000000,99.000000 
	C1.000000,97.611107 1.000000,96.222221 1.318958,94.731117 
	C3.112754,90.770866 4.587592,86.912834 6.411955,82.905197 
	C7.728523,79.192665 8.695567,75.629738 9.662610,72.066811 
	C9.315069,71.993744 8.967527,71.920670 8.619986,71.847595 
	C7.535198,75.324585 6.450411,78.801575 5.097744,82.510872 
	C3.553243,83.162117 2.276622,83.581062 1.000000,84.000000 
	C1.000000,82.611107 1.000000,81.222221 1.305617,79.727524 
	C3.406773,74.887474 6.213284,70.273354 6.792979,65.394630 
	C8.107359,54.332798 8.533754,43.147705 8.910078,31.998852 
	C9.133957,25.366264 16.547377,22.418406 16.536789,15.844326 
	C16.536449,15.632507 17.039743,15.454678 17.231459,15.202595 
	C20.827913,10.473676 24.412741,5.735912 28.000000,1.000000 
	C30.700014,1.000000 33.400028,1.000000 36.468010,1.337017 
	C35.406406,3.327935 33.976833,4.981838 32.547256,6.635740 
	C33.080231,7.047441 33.613201,7.459142 34.146175,7.870842 
	C35.764118,5.580562 37.382057,3.290281 39.000000,1.000000 
	C41.041668,1.000000 43.083332,1.000000 45.484367,1.341438 
	C31.415815,11.686889 24.520391,25.695440 24.012106,43.023914 
	C23.609663,56.743950 23.320486,70.467567 23.073301,84.191254 
	C23.058306,85.023842 23.656700,86.216248 24.336145,86.611855 
	C24.981146,86.987411 26.342138,86.841324 26.959547,86.366798 
	C27.643457,85.841148 28.240831,84.658295 28.188360,83.803841 
	C27.690998,75.704842 27.047148,67.614830 26.359695,58.368526 
	C48.178165,79.970917 53.135845,121.110756 27.100981,148.873520 
	C27.078857,141.003052 27.643267,133.148682 28.087633,125.287514 
	C28.147512,124.228233 27.832182,122.978859 27.247011,122.119591 
	C26.930143,121.654297 25.380604,121.440453 24.910677,121.799126 
	C24.117996,122.404129 23.349556,123.527390 23.283413,124.482056 
	C23.187811,125.861877 23.929331,127.280533 23.965902,128.691635 
	C24.352217,143.597809 24.623350,158.506989 25.023640,173.412735 
	C25.249245,181.813705 28.792027,189.021896 33.978691,195.340179 
	C37.661423,199.826385 41.970490,203.798447 46.000000,208.000000 
M13.678153,133.948105 
	C13.123256,134.489563 12.087245,135.027939 12.083753,135.572937 
	C11.994091,149.565872 11.951882,163.560150 12.100754,177.552078 
	C12.116400,179.022568 13.369018,180.479904 14.047743,181.943344 
	C14.407835,181.822586 14.767928,181.701813 15.128021,181.581055 
	C15.128021,178.882553 15.128021,176.184067 15.128021,173.025757 
	C17.575577,177.712433 19.756191,181.887970 22.018019,186.835907 
	C22.686726,188.103867 23.355433,189.371811 24.024139,190.639771 
	C24.442070,190.407852 24.860001,190.175934 25.277929,189.944016 
	C24.433886,188.426529 23.589842,186.909042 22.252621,184.837097 
	C17.800520,174.959381 14.110168,165.005905 14.869426,153.770233 
	C15.328145,146.981995 14.536849,140.109283 14.806998,132.696838 
	C14.529236,131.693375 14.251472,130.689926 13.973710,129.686462 
	C13.590853,129.829803 13.207995,129.973160 12.825137,130.116501 
	C13.351609,131.199203 13.878080,132.281891 13.678153,133.948105 
M31.248785,197.879791 
	C31.371489,198.948273 31.494190,200.016739 31.616894,201.085220 
	C32.112743,200.987518 32.608593,200.889801 33.104443,200.792099 
	C32.708046,199.989716 32.311653,199.187347 31.248785,197.879791 
M27.667082,196.038986 
	C28.086205,195.652969 28.505327,195.266937 28.924446,194.880920 
	C28.476145,194.483017 28.027843,194.085114 27.579544,193.687210 
	C27.409731,194.246338 27.239920,194.805481 27.667082,196.038986 
M25.070620,192.361420 
	C25.581263,192.638672 26.091906,192.915939 26.602547,193.193207 
	C26.646646,192.590302 26.690746,191.987381 26.734844,191.384476 
	C26.172646,191.405594 25.610445,191.426727 25.070620,192.361420 
M30.929640,10.501140 
	C30.372921,10.472281 29.816200,10.443421 29.259481,10.414562 
	C29.300385,11.018124 29.341290,11.621684 29.382195,12.225246 
	C29.897133,11.954021 30.412071,11.682794 30.929640,10.501140 
M26.066706,15.501160 
	C26.624836,15.529158 27.182964,15.557156 27.741096,15.585154 
	C27.700569,14.981124 27.660042,14.377093 27.619514,13.773064 
	C27.103916,14.045219 26.588316,14.317375 26.066706,15.501160 
z"/>
<path fill="#E0E0E0" opacity="1.000000" stroke="none" 
	d="
M49.468658,208.000000 
	C49.731541,207.338394 50.390079,206.220123 51.206520,206.089615 
	C56.344910,205.268188 61.507736,204.274658 66.684135,204.133789 
	C69.966743,204.044449 73.290955,205.312729 76.588409,206.010422 
	C78.321510,206.377136 80.037209,206.826111 81.880379,207.618958 
	C71.312439,208.000000 60.624878,208.000000 49.468658,208.000000 
z"/>
<path fill="#E0E0E0" opacity="1.000000" stroke="none" 
	d="
M577.468628,208.000000 
	C584.106262,205.129898 591.046265,202.456161 599.005310,205.786362 
	C601.992859,207.036423 605.863037,206.174210 609.330200,206.292252 
	C609.466309,206.296875 609.724854,206.528641 609.708374,206.572220 
	C609.598816,206.862183 609.429871,207.129745 609.640137,207.702301 
	C599.312439,208.000000 588.624878,208.000000 577.468628,208.000000 
z"/>
<path fill="#DFDFDF" opacity="1.000000" stroke="none" 
	d="
M79.531342,1.000000 
	C74.117371,3.290999 68.516541,5.604087 61.732513,3.252401 
	C57.763077,1.876393 52.989830,2.821508 48.578594,2.706651 
	C48.443821,2.703141 48.188904,2.457227 48.200184,2.435992 
	C48.348263,2.157265 48.534225,1.898665 48.355343,1.317508 
	C58.354229,1.000000 68.708458,1.000000 79.531342,1.000000 
z"/>
<path fill="#DFDFDF" opacity="1.000000" stroke="none" 
	d="
M610.531372,0.999993 
	C610.653809,1.654843 610.341309,2.859657 609.956421,2.883238 
	C602.487183,3.340883 595.009338,3.892486 587.533569,3.887607 
	C584.770325,3.885803 582.008057,2.507959 579.122681,1.378851 
	C589.354248,1.000000 599.708435,1.000000 610.531372,0.999993 
z"/>
<path fill="#E2E2E2" opacity="1.000000" stroke="none" 
	d="
M658.000000,114.625000 
	C657.346069,115.279594 656.303894,115.391968 656.100037,115.865372 
	C654.546570,119.472527 653.156921,123.150200 651.380676,126.960266 
	C650.944397,126.804016 650.777344,126.534531 650.352783,126.161751 
	C651.837524,121.446953 653.513550,116.876556 655.889221,112.151649 
	C657.059265,111.998093 657.529602,111.999046 658.000000,112.000000 
	C658.000000,112.750000 658.000000,113.500000 658.000000,114.625000 
z"/>
<path fill="#E2E2E2" opacity="1.000000" stroke="none" 
	d="
M8.056366,126.896881 
	C5.845074,122.868423 3.734515,118.621452 1.311978,114.687241 
	C1.000000,114.250000 1.000000,113.500000 1.352840,112.390976 
	C2.175882,112.006592 2.646084,111.981232 3.116287,111.955879 
	C5.012743,116.398529 6.909200,120.841179 8.822151,125.646515 
	C8.557437,126.177231 8.330255,126.400284 8.056366,126.896881 
z"/>
<path fill="#E2E2E2" opacity="1.000000" stroke="none" 
	d="
M2.516364,99.011383 
	C2.417657,101.653549 2.015613,104.304474 1.306785,106.477707 
	C1.000000,103.958336 1.000000,101.916664 1.000000,99.437500 
	C1.404343,99.006714 1.808686,99.013428 2.516364,99.011383 
z"/>
<path fill="#E2E2E2" opacity="1.000000" stroke="none" 
	d="
M656.180298,109.877655 
	C656.476074,107.718323 656.771851,105.558998 657.533813,103.699837 
	C658.000000,105.714355 658.000000,107.428719 657.545288,109.537079 
	C656.787170,109.913269 656.483704,109.895454 656.180298,109.877655 
z"/>
<path fill="#DFDFDF" opacity="1.000000" stroke="none" 
	d="
M3.060675,111.667732 
	C2.646084,111.981232 2.175882,112.006592 1.352840,112.015976 
	C1.000000,111.555557 1.000000,111.111115 1.456614,110.251244 
	C2.215615,109.770844 2.518003,109.705872 2.820391,109.640900 
	C2.881948,110.220459 2.943506,110.800026 3.060675,111.667732 
z"/>
<path fill="#DFDFDF" opacity="1.000000" stroke="none" 
	d="
M656.100708,110.128265 
	C656.483704,109.895454 656.787170,109.913269 657.545288,109.965546 
	C658.000000,110.444443 658.000000,110.888885 658.000000,111.666664 
	C657.529602,111.999046 657.059265,111.998093 656.236267,111.976532 
	C655.929504,111.430252 655.975342,110.904564 656.100708,110.128265 
z"/>
<path fill="#E2E2E2" opacity="1.000000" stroke="none" 
	d="
M658.000000,99.750000 
	C657.449219,100.112328 656.898376,100.224663 656.264038,99.849731 
	C656.482727,99.297157 656.784973,99.231850 657.543640,99.083267 
	C658.000000,99.000000 658.000000,99.500000 658.000000,99.750000 
z"/>
<path fill="#E2E2E2" opacity="1.000000" stroke="none" 
	d="
M2.739833,109.150360 
	C2.518003,109.705872 2.215615,109.770844 1.456614,109.917908 
	C1.000000,110.000000 1.000000,109.500000 1.000000,109.250000 
	C1.553091,108.886604 2.106183,108.773209 2.739833,109.150360 
z"/>
<path fill="#E2E2E2" opacity="1.000000" stroke="none" 
	d="
M630.000000,165.061905 
	C629.046204,159.603394 628.092163,154.597305 626.967773,148.697708 
	C635.908264,156.066025 629.934509,165.451141 632.479126,173.154648 
	C631.995056,173.232361 631.510986,173.310074 631.026978,173.387787 
	C630.684509,170.763306 630.342041,168.138809 630.000000,165.061905 
z"/>
<path fill="#E1E1E1" opacity="1.000000" stroke="none" 
	d="
M627.917542,56.927521 
	C629.005981,49.492302 630.094482,42.057083 631.182922,34.621864 
	C631.455200,34.629620 631.727417,34.637379 631.999634,34.645138 
	C631.999634,40.908848 632.156738,47.179714 631.871826,53.430439 
	C631.812317,54.735577 630.120544,55.966309 628.730164,57.275166 
	C628.158752,57.188511 628.038147,57.058018 627.917542,56.927521 
z"/>
<path fill="#E1E1E1" opacity="1.000000" stroke="none" 
	d="
M628.451172,57.522766 
	C628.287292,58.409966 627.951477,59.093403 627.282532,60.454937 
	C627.282532,58.878277 627.282532,58.034637 627.600037,57.059261 
	C628.038147,57.058018 628.158752,57.188511 628.451172,57.522766 
z"/>
<path fill="#E2E2E2" opacity="1.000000" stroke="none" 
	d="
M31.419502,149.427979 
	C30.462708,157.370499 29.128145,165.382263 27.793583,173.394043 
	C28.817875,165.412338 23.190479,156.462021 31.419502,149.427979 
z"/>
<path fill="#E1E1E1" opacity="1.000000" stroke="none" 
	d="
M30.353897,57.705635 
	C27.587584,55.941975 26.750040,53.474571 26.921608,50.199139 
	C27.195166,44.976578 26.994734,39.729187 27.741367,34.427616 
	C28.827339,41.647148 29.913309,48.866680 30.854168,56.697166 
	C30.590670,57.440620 30.472284,57.573128 30.353897,57.705635 
z"/>
<path fill="#E1E1E1" opacity="1.000000" stroke="none" 
	d="
M30.894554,57.116722 
	C31.438726,57.816303 31.797401,58.707275 32.156078,59.598248 
	C31.870338,59.699032 31.584599,59.799816 31.298861,59.900600 
	C31.125986,59.342491 30.953114,58.784382 30.567068,57.965954 
	C30.472284,57.573128 30.590670,57.440620 30.894554,57.116722 
z"/>
</svg>